<?xml version="1.0" encoding="iso-8859-1"?>
<!-- Uploaded to: SVG Repo, www.svgrepo.com, Generator: SVG Repo Mixer Tools -->
<!DOCTYPE svg PUBLIC "-//W3C//DTD SVG 1.1//EN" "http://www.w3.org/Graphics/SVG/1.1/DTD/svg11.dtd">
<svg fill="#000000" height="800px" width="800px" version="1.1" id="Capa_1" xmlns="http://www.w3.org/2000/svg" xmlns:xlink="http://www.w3.org/1999/xlink" 
	 viewBox="0 0 180.147 180.147" xml:space="preserve">
<g>
	<path d="M166.578,0H103.57c-4.143,0-7.5,3.357-7.5,7.5c0,4.142,3.357,7.5,7.5,7.5h4.237l6.42,89.992
		c0.069,0.967,0.325,1.912,0.754,2.782l13.024,26.423v30.95h-0.439c-4.143,0-7.5,3.357-7.5,7.5s3.357,7.5,7.5,7.5h15.861
		c4.143,0,7.5-3.357,7.5-7.5s-3.357-7.5-7.5-7.5h-0.422v-30.95l13.025-26.423c0.429-0.87,0.684-1.815,0.754-2.782L163.204,15h3.374
		c4.143,0,7.5-3.358,7.5-7.5C174.078,3.357,170.72,0,166.578,0z M135.506,115.484l-6.421-13.025l-1.394-19.533h15.629l-1.394,19.533
		L135.506,115.484z M126.621,67.926l-3.776-52.925h25.322l-3.776,52.925H126.621z"/>
	<path d="M76.578,0H13.57c-4.142,0-7.5,3.357-7.5,7.5c0,4.142,3.358,7.5,7.5,7.5h4.237l6.421,89.992
		c0.069,0.967,0.325,1.912,0.754,2.782l13.024,26.422v30.951h-0.438c-4.142,0-7.5,3.357-7.5,7.5s3.358,7.5,7.5,7.5h15.861
		c4.142,0,7.5-3.357,7.5-7.5s-3.358-7.5-7.5-7.5h-0.423v-30.951l13.025-26.422c0.429-0.87,0.685-1.815,0.754-2.782L73.205,15h3.374
		c4.142,0,7.5-3.358,7.5-7.5C84.078,3.357,80.72,0,76.578,0z M45.505,115.485l-6.421-13.026l-1.393-19.533H53.32l-1.394,19.533
		L45.505,115.485z M36.621,67.926l-3.776-52.925h25.322L54.39,67.926H36.621z"/>
</g>
</svg>